<?xml version="1.0" encoding="utf-8"?>
<!-- Generator: Adobe Illustrator 17.1.0, SVG Export Plug-In . SVG Version: 6.00 Build 0)  -->
<!DOCTYPE svg PUBLIC "-//W3C//DTD SVG 1.1//EN" "http://www.w3.org/Graphics/SVG/1.1/DTD/svg11.dtd">
<svg version="1.1" id="Слой_1" xmlns="http://www.w3.org/2000/svg" xmlns:xlink="http://www.w3.org/1999/xlink" x="0px" y="0px"
	 viewBox="355.9 103.3 162.1 101" enable-background="new 355.9 103.3 162.1 101" xml:space="preserve">
<path fill="none" stroke="#AC262A" stroke-miterlimit="10" d="M361.5,109.9h151.8V199H361.5V109.9z"/>
<path fill="none" stroke="#AC262A" stroke-miterlimit="10" d="M359,103.8h156c1.4,0,2.6,1.3,2.6,3c0,1.7-1.1,3-2.6,3H359
	c-1.4,0-2.6-1.3-2.6-3C356.4,105.2,357.6,103.8,359,103.8z"/>
<path fill="none" stroke="#AC262A" stroke-miterlimit="10" d="M359,198.8h156c1.4,0,2.6,1.1,2.6,2.4c0,1.4-1.1,2.6-2.6,2.6H359
	c-1.4,0-2.6-1.1-2.6-2.6C356.4,200,357.6,198.8,359,198.8z"/>
<path fill="#AC262A" stroke="#AC262A" stroke-miterlimit="10" d="M379.8,121.9h0.7v64.5h-0.7V121.9z"/>
<path fill="#AC262A" stroke="#AC262A" stroke-miterlimit="10" d="M399.7,121.9h0.7v64.5h-0.7V121.9z"/>
<path fill="#AC262A" stroke="#AC262A" stroke-miterlimit="10" d="M419.6,121.9h0.7v64.5h-0.7V121.9z"/>
<path fill="#AC262A" stroke="#AC262A" stroke-miterlimit="10" d="M438,121.9h0.7v64.5H438V121.9z"/>
<path fill="#AC262A" stroke="#AC262A" stroke-miterlimit="10" d="M456.4,121.9h0.7v64.5h-0.7V121.9z"/>
<path fill="#AC262A" stroke="#AC262A" stroke-miterlimit="10" d="M474.9,121.9h0.7v64.5h-0.7V121.9z"/>
<path fill="#AC262A" stroke="#AC262A" stroke-miterlimit="10" d="M494.7,121.9h0.7v64.5h-0.7V121.9z"/>
</svg>
