<svg viewBox="0 0 20.5 20.5" xmlns="http://www.w3.org/2000/svg"><path id="Close" fill="#e51836" d="m11.68978,10.29972l8.239,-8.194c0.395,-0.391 0.395,-1.024 0,-1.414c-0.394,-0.391 -1.034,-0.391 -1.428,0l-8.232,8.187l-8.308,-8.309c-0.394,-0.395 -1.034,-0.395 -1.428,0c-0.394,0.396 -0.394,1.037 0,1.432l8.302,8.303l-8.332,8.286c-0.394,0.391 -0.394,1.024 0,1.414c0.394,0.391 1.034,0.391 1.428,0l8.325,-8.279l8.275,8.276c0.394,0.395 1.034,0.395 1.428,0c0.394,-0.396 0.394,-1.037 0,-1.432l-8.269,-8.27z"/>
</svg>