<svg width="32" height="32" viewBox="0 0 32 32" xmlns="http://www.w3.org/2000/svg"><path stroke="null" d="m30.71444,14.84713l-13.48117,0l0,-13.48117c0,-0.64382 -0.44925,-1.16594 -1.09307,-1.16594s-1.09307,0.52212 -1.09307,1.16594l0,13.48117l-13.48117,0c-0.64382,0 -1.16594,0.44925 -1.16594,1.09307s0.52212,1.09307 1.16594,1.09307l13.48117,0l0,13.48117c0,0.64382 0.44925,1.16594 1.09307,1.16594s1.09307,-0.52212 1.09307,-1.16594l0,-13.48117l13.48117,0c0.64382,0 1.16594,-0.44925 1.16594,-1.09307s-0.52212,-1.09307 -1.16594,-1.09307z"/>
</svg>