<svg width="21.5" height="19" viewBox="0 0 21.5 19" xmlns="http://www.w3.org/2000/svg"><path d="m21.5,16.7l0,0c0,1.3 -1,2.3 -2.3,2.3l0,0l-16.9,0l0,0c-1.3,0 -2.3,-1 -2.3,-2.3l0,-13.5c0,-1 0.8,-1.9 1.9,-1.9l0,0l9.4,0l3.8,-1.3c0.2,-0.1 0.5,0 0.6,0.3l0.4,1.1l1.7,0c1,0 1.9,0.8 1.9,1.9l0,0.9l0,0c1,0 1.9,0.8 1.9,1.9l0,10.6l-0.1,0zm-19.6,-14.4l0,0c-0.5,0 -0.9,0.4 -0.9,0.9c0,0.5 0.4,0.9 0.9,0.9l1.6,0l0,0l0.1,0c0,0 0,0 0,0l5.1,-1.8l-6.8,0zm13.6,0.1l-0.5,-1.4l0,0l0,0l-1,0.3l0,0l-2.6,0.9l0,0l-5.1,2l9.8,0l-0.6,-1.8zm3.2,0.8c0,-0.5 -0.4,-0.9 -0.9,-0.9l-1.3,0l0.7,1.9l1.6,0l0,0l0,-1l-0.1,0zm0.9,1.9l-17.7,0l0,0c-0.4,0 -0.7,-0.1 -1,-0.3l0,11.8c0,0.8 0.6,1.4 1.4,1.4l16.8,0c0.8,0 1.4,-0.6 1.4,-1.4l0,-3.2l-1.9,0c-1,0 -1.9,-0.8 -1.9,-1.9c0,-1 0.8,-1.9 1.9,-1.9l1.9,0l0,-3.6c0.1,-0.5 -0.4,-0.9 -0.9,-0.9zm1,7.4l0,-1.9l-1.9,0c-0.5,0 -0.9,0.4 -0.9,0.9c0,0.5 0.4,0.9 0.9,0.9l1.9,0l0,0.1zm-1.9,-1.4l0.9,0l0,0.9l-0.9,0l0,-0.9z"/></svg>