<svg width="20" height="20" viewBox="0 0 20 20" xmlns="http://www.w3.org/2000/svg"><path d="m3.5,11.7c0,0 -1.8,-7.9 6.3,-8.6c2.4,-0.2 4.6,1.6 4.6,1.6l-1,0.8c0,0 -3,-1.5 -5.1,-1c-2.4,0.6 -4.9,1.9 -4.3,6.8c0.1,0.2 -0.5,0.4 -0.5,0.4z" fill-rule="evenodd" clip-rule="evenodd"/><path d="m16.3,6.5c0,0 0.8,1.3 0.9,3.2c0.1,1 -0.5,2.2 -0.5,2.2l-0.9,-0.3c0,0 0.4,-1.4 0.3,-2.5c-0.1,-0.9 -0.6,-1.3 -0.8,-1.7c0,0 1,-0.9 1,-0.9z" fill-rule="evenodd" clip-rule="evenodd"/><path d="m9.5,8.4c0.3,-0.2 5.4,-2.4 5.4,-2.4s-3,4.2 -3.1,4.4c-0.2,0.3 -0.9,1.1 -1.7,1.1c-0.9,0 -1.6,-0.7 -1.6,-1.6c-0.1,-0.8 0.7,-1.3 1,-1.5z" fill-rule="evenodd" clip-rule="evenodd"/><path d="m15.6,13c0.4,0 0.7,0.3 0.7,0.7s-0.3,0.7 -0.7,0.7c-0.4,0 -0.7,-0.3 -0.7,-0.7s0.3,-0.7 0.7,-0.7z" fill-rule="evenodd" clip-rule="evenodd"/><path d="m12.8,14.9c0.4,0 0.7,0.3 0.7,0.7c0,0.4 -0.3,0.7 -0.7,0.7s-0.7,-0.3 -0.7,-0.7c0,-0.4 0.3,-0.7 0.7,-0.7z" fill-rule="evenodd" clip-rule="evenodd"/><path d="m9.5,15.8c0.4,0 0.7,0.3 0.7,0.7c0,0.4 -0.3,0.7 -0.7,0.7s-0.7,-0.3 -0.7,-0.7c0,-0.4 0.3,-0.7 0.7,-0.7z" fill-rule="evenodd" clip-rule="evenodd"/><path d="m6.3,14.9c0.4,0 0.7,0.3 0.7,0.7c0,0.4 -0.3,0.7 -0.7,0.7c-0.4,0 -0.7,-0.3 -0.7,-0.7c0,-0.4 0.3,-0.7 0.7,-0.7z" fill-rule="evenodd" clip-rule="evenodd"/><path d="m10,1c5,0 9,4 9,9c0,5 -4,9 -9,9c-5,0 -9,-4 -9,-9c0,-5 4,-9 9,-9m0,-1c-5.5,0 -10,4.5 -10,10c0,5.5 4.5,10 10,10c5.5,0 10,-4.5 10,-10c0,-5.5 -4.5,-10 -10,-10l0,0z"/></svg>