<svg width="9.5" height="20.5" viewBox="0 0 9.5 20.5" xmlns="http://www.w3.org/2000/svg"><path id="svg_3" d="m9.5,13.2l-4,-7.8c0,0 0,0 0,0l-0.2,-0.9c0.1,0 0.2,-0.1 0.3,-0.2c1,-1.9 0.7,-3.1 0.1,-3.6c0,0 -0.5,-0.7 -1.8,-0.7c-0.9,0 -1.3,0.2 -2.1,0.7c-0.7,0.5 -1,1.7 0.1,3.7c0,0.1 0.1,0.1 0.2,0.2l-2.1,12.8c0,0.1 0,0.3 0.1,0.4l3.4,2.5c0.1,0.1 0.2,0.1 0.3,0.1l0,0c0.1,0 0.2,-0.1 0.3,-0.1l3.2,-2.6c0.1,-0.1 0.1,-0.2 0.1,-0.4l-0.4,-2.4l1.2,0.1c0.1,0 0.1,0 0.2,0c0.2,0 0.3,-0.1 0.4,-0.2l0.7,-1.2c0,-0.1 0,-0.3 0,-0.4zm-7.2,-11.7c0.7,-0.4 0.9,-0.5 1.5,-0.5c1.1,0 1.3,0.5 1.3,0.5c0.1,0 0.6,0.7 -0.1,2.1c-0.8,-0.1 -1.6,-0.1 -2.5,0c-0.7,-1.4 -0.3,-2.1 -0.2,-2.1zm1.5,17.9l-2.9,-2.1l2.1,-12.8c0.5,0 0.9,0 1.4,0l2.1,12.8l-2.7,2.1zm4.4,-5.4l-1.3,0l-1,-5.9l2.7,5.2l-0.4,0.7z"/></svg>