<svg width="30" height="30" viewBox="0 0 30 30" xmlns="http://www.w3.org/2000/svg"><path stroke="null" d="m5.50304,20.45869c-3.03253,0 -5.50304,-2.47052 -5.50304,-5.50304c0,-3.03253 2.47052,-5.50304 5.50304,-5.50304c3.03253,0 5.50304,2.47052 5.50304,5.50304c0,3.03253 -2.47052,5.50304 -5.50304,5.50304zm0,-9.77083c-2.35343,0 -4.26779,1.91436 -4.26779,4.26779c0,2.35343 1.91436,4.26779 4.26779,4.26779c2.35343,0 4.26779,-1.91436 4.26779,-4.26779c0,-2.35343 -1.91436,-4.26779 -4.26779,-4.26779z"/><path stroke="null" d="m24.47098,11.46063c-3.03253,0 -5.50304,-2.47052 -5.50304,-5.50304c0,-3.03253 2.47052,-5.50304 5.50304,-5.50304c3.03253,0 5.50304,2.47052 5.50304,5.50304c0,3.03253 -2.47052,5.50304 -5.50304,5.50304zm0,-9.77083c-2.35343,0 -4.26779,1.91436 -4.26779,4.26779c0,2.35343 1.91436,4.26779 4.26779,4.26779s4.26779,-1.91436 4.26779,-4.26779c0,-2.35343 -1.91436,-4.26779 -4.26779,-4.26779z"/><path stroke="null" d="m24.47098,29.45676c-3.03253,0 -5.50304,-2.47052 -5.50304,-5.50304c0,-3.03253 2.47052,-5.50304 5.50304,-5.50304c3.03253,0 5.50304,2.47052 5.50304,5.50304c0,3.03253 -2.47052,5.50304 -5.50304,5.50304zm0,-9.77083c-2.35343,0 -4.26779,1.91436 -4.26779,4.26779c0,2.35343 1.91436,4.26779 4.26779,4.26779s4.26779,-1.91436 4.26779,-4.26779c0,-2.35343 -1.91436,-4.26779 -4.26779,-4.26779z"/><path stroke="null" d="m9.46641,12.71931c-0.23417,0 -0.46249,-0.13465 -0.56201,-0.36882c-0.1405,-0.31028 0,-0.6791 0.31028,-0.81375l10.11623,-4.50196c0.31028,-0.1405 0.6791,0 0.81375,0.31028c0.1405,0.31028 0,0.6791 -0.31028,0.81375l-10.11623,4.50781c-0.08196,0.03513 -0.16392,0.05269 -0.25173,0.05269z"/><path stroke="null" d="m19.58849,22.92921c-0.08781,0 -0.17563,-0.01756 -0.25759,-0.05854l-10.02256,-4.64246c-0.31028,-0.1405 -0.44493,-0.50932 -0.29857,-0.8196s0.50932,-0.44493 0.8196,-0.29857l10.01671,4.64246c0.31028,0.1405 0.44493,0.50932 0.29857,0.8196c-0.10538,0.22246 -0.32784,0.35711 -0.55616,0.35711z"/></svg>