<svg width="30" height="30" viewBox="0 0 30 30" xmlns="http://www.w3.org/2000/svg"><path stroke="null" d="m0.50592,10.05444l6.18999,0l0,19.9046l-6.18999,0l0,-19.9046zm3.1065,-9.89477c1.97895,0 3.58973,1.61078 3.58973,3.58973c0,1.97895 -1.61078,3.58973 -3.58973,3.58973c-1.99046,0 -3.58973,-1.61078 -3.58973,-3.58973c0,-1.97895 1.59927,-3.58973 3.58973,-3.58973" class="st0"/><path stroke="null" d="m10.58478,10.05444l5.92536,0l0,2.72682l0.08054,0c0.8284,-1.56475 2.84187,-3.21005 5.85633,-3.21005c6.25902,0 7.42108,4.11899 7.42108,9.48057l0,10.90726l-6.17848,0l0,-9.67617c0,-2.31262 -0.03452,-5.28105 -3.21005,-5.28105c-3.22155,0 -3.70479,2.51972 -3.70479,5.10846l0,9.84875l-6.17848,0l0,-19.9046l-0.01151,0z"/></svg>