<svg width="20.8" height="17" viewBox="0 0 20.8 17" xmlns="http://www.w3.org/2000/svg"><path d="m16.3,11.6l0,0c-0.1,-0.1 -0.1,-0.1 -0.1,-0.1l0,0c0,0 0,0 0,0l-2.7,-2.4c-0.3,-0.2 -0.7,-0.2 -0.9,0.1c-0.2,0.3 0,0.5 0.2,0.8l2.5,2l0.5,0.5c0.5,0.5 0.1,2.1 -1.3,1.1l-0.7,-0.6l0,0l0,0c0,0 0,0 0,0c0,0 -0.1,-0.1 -0.1,-0.1l-2.2,-1.9c-0.3,-0.2 -0.7,-0.2 -0.9,0.1c-0.2,0.3 0,0.6 0.2,0.9l2.5,2c0,0 0,0 0,0c0,0 0.4,0.1 0,0l0,0c0.2,0.2 0,0.8 0,1c0,0.2 -0.3,0.4 -0.5,0.5c-0.3,0.1 -0.8,-0.3 -1,-0.5l-2.5,-2.5c0,0 0.1,0.1 0,0.1c0,0 -0.1,0 -0.1,-0.1c0,0 -0.1,0 -0.1,0c0,0 -0.1,0 -0.1,0c0,0 -0.1,0 -0.1,0c0,0 -0.1,0 -0.1,0c0,0 -0.1,0.1 -0.1,0.1c0,0 -0.1,0 -0.1,0.1c0,0 0,0 0,0c0,0 0,0 0,0c0,0 0,0.1 -0.1,0.1c0,0 0,0.1 -0.1,0.1c0,0 0,0.1 0,0.1s-0.1,-0.1 0.4,0.5c0,0 0.1,0.1 1,1c1.1,1.2 -0.3,2.2 -1,1.5c-1.7,-1.3 -6.2,-5.2 -7,-7l1.5,-7c0.3,-0.1 1.2,0 3,0c-0.5,0.6 -0.9,1.7 -1,2.5c-0.2,1.2 0,2.2 0.5,2.5c0.7,0.4 2,1.1 3.9,-1.5c0.4,0 0.7,-0.4 1.1,-0.5c0,0 5.7,4.9 6.5,5.5c0.8,0.6 0.4,2.3 -1,1.1zm2,-1.6c-0.1,-0.2 -0.3,-0.3 -0.5,-0.5l-6.5,-5.5c-0.2,-0.1 -0.3,-0.1 -0.5,0c-0.5,0.2 -1.3,0.5 -1.5,0.5c-0.3,-0.1 -0.4,0.3 -0.5,0.5c-0.9,1.4 -1.7,1.6 -2,1.5c-0.7,-0.2 -0.7,-1.1 -0.5,-2c0.3,-1.5 1.8,-3.1 4,-3.5c0,0 1.6,-0.1 5.5,2c0.1,0.1 0.3,0 0.5,0l1,-0.5l2,8c-0.2,0.1 -0.8,-0.5 -1,-0.5zm2.4,0.6l-2.4,-8.6c0,0 -0.2,-1.3 -1,-1.1c-0.3,0.1 -0.4,0.3 -0.5,0.6l-0.5,0.5c-4.2,-2.2 -6.3,-2 -6.4,-1.9c-0.8,0.1 -1.5,0.6 -2.1,0.9c-2.1,0.1 -3.2,-0.1 -4,0c-0.1,-0.2 0,-0.9 -0.5,-1c-0.5,0 -0.6,0.5 -0.6,0.5s-2,7.8 -2.6,10c-0.5,1.8 0.5,1.5 0.7,1l0.5,-1.5c1.9,2.5 6.1,6 6.6,6.4c0.5,0.4 1,0.6 1.4,0.6c0.5,0 1,-0.3 1.3,-0.6c0.1,-0.2 0.2,-0.4 0.3,-0.6l0.2,0.2c0.4,0.4 0.9,0.6 1.4,0.6c0.2,0 0.4,0 0.6,-0.1c0.6,-0.2 1,-0.7 1.2,-1.4c0.8,0.2 1.5,-0.1 2,-0.7c0.3,-0.4 0.5,-0.8 0.5,-1.3c0.5,-0.1 1,-0.3 1.3,-0.8c0.2,-0.3 0.4,-0.6 0.5,-0.9c0.3,0 0.5,0 0.8,-0.1l0.1,0.4c0,0.2 0.2,0.3 0.3,0.4c0.2,0 1.4,0.1 0.9,-1.5z"/></svg>