<svg width="23.1" height="26" viewBox="0 0 23.1 26" xmlns="http://www.w3.org/2000/svg"><path d="m12.5,8.1c1.7,0 3,1.3 3,3c0,1.7 -1.3,3 -3,3c-1.7,0 -3,-1.3 -3,-3c0,-1.7 1.3,-3 3,-3z" fill-rule="evenodd" clip-rule="evenodd" fill="none" stroke-miterlimit="10"/><path d="m9.8,12.6l0.5,0.8l-5.1,3.2l-0.5,-0.8l5.1,-3.2z" fill-rule="evenodd" clip-rule="evenodd"/><path d="m17.7,4.7l0.7,0.7l-3.7,3.6l-0.7,-0.6l3.7,-3.7z" fill-rule="evenodd" clip-rule="evenodd"/><path d="m14.3,13.4l0.5,-0.9l4.5,3l-0.5,0.9l-4.5,-3z" fill-rule="evenodd" clip-rule="evenodd"/><path d="m7.3,6.6l0.7,-0.7l3,3l-0.7,0.7l-3,-3z" fill-rule="evenodd" clip-rule="evenodd"/><path d="m12,14.1l1,0l0,6l-1,0l0,-6z" fill-rule="evenodd" clip-rule="evenodd"/><path d="m19.5,0.6c1.4,0 2.5,1.1 2.5,2.5c0,1.4 -1.1,2.5 -2.5,2.5c-1.4,0 -2.5,-1.1 -2.5,-2.5c0,-1.4 1.1,-2.5 2.5,-2.5z" fill-rule="evenodd" clip-rule="evenodd" fill="none" stroke-miterlimit="10"/><path d="m20.5,15.1c1.1,0 2,0.9 2,2c0,1.1 -0.9,2 -2,2c-1.1,0 -2,-0.9 -2,-2c0,-1.1 0.9,-2 2,-2z" fill-rule="evenodd" clip-rule="evenodd" fill="none" stroke-miterlimit="10"/><path d="m6.5,3.1c1.1,0 2,0.9 2,2c0,1.1 -0.9,2 -2,2c-1.1,0 -2,-0.9 -2,-2c0,-1.1 0.9,-2 2,-2z" fill-rule="evenodd" clip-rule="evenodd" fill="none" stroke-miterlimit="10"/><path d="m12.7,20.1c1.5,0 2.8,1.2 2.8,2.8c0,1.5 -1.2,2.8 -2.8,2.8c-1.5,0 -2.8,-1.2 -2.8,-2.8c0.1,-1.6 1.3,-2.8 2.8,-2.8z" fill-rule="evenodd" clip-rule="evenodd" fill="none" stroke-miterlimit="10"/><path d="m3,15.1c1.4,0 2.5,1.1 2.5,2.5c0,1.4 -1.1,2.5 -2.5,2.5c-1.4,0 -2.5,-1.1 -2.5,-2.5c0,-1.4 1.1,-2.5 2.5,-2.5z" fill-rule="evenodd" clip-rule="evenodd" fill="none" stroke-miterlimit="10"/></svg>