<svg width="17.5" height="18.5" viewBox="0 0 17.5 18.5" xmlns="http://www.w3.org/2000/svg"><path d="m4.1,17.6l-3.2,0l0,-16.7l13.8,0l0,3.6c0,0.2 0.2,0.5 0.5,0.5c0.3,0 0.5,-0.2 0.5,-0.5l0,-4c0,-0.2 -0.2,-0.5 -0.5,-0.5l-14.7,0c-0.3,0 -0.5,0.2 -0.5,0.5l0,17.5c0,0.2 0.2,0.5 0.5,0.5l3.7,0c0.3,0 0.5,-0.2 0.5,-0.5c-0.1,-0.2 -0.3,-0.4 -0.6,-0.4zm13.3,-9.4l-2.2,-2.2c-0.1,-0.1 -0.2,-0.1 -0.3,-0.1l-8.9,0c-0.3,0 -0.5,0.2 -0.5,0.5l0,11.6c0,0.2 0.2,0.5 0.5,0.5l11,0c0.3,0 0.5,-0.2 0.5,-0.5l0,-9.5c0,-0.2 0,-0.3 -0.1,-0.3zm-0.8,9.4l-10.2,0l0,-10.8l8.3,0l1.9,1.9l0,8.9zm-2.3,-2.7l-5.6,0c-0.3,0 -0.5,0.2 -0.5,0.5c0,0.2 0.2,0.5 0.5,0.5l5.5,0c0.3,0 0.5,-0.2 0.5,-0.5c0,-0.3 -0.2,-0.5 -0.4,-0.5zm0,-2.7l-5.6,0c-0.3,0 -0.5,0.2 -0.5,0.5c0,0.2 0.2,0.5 0.5,0.5l5.5,0c0.3,0 0.5,-0.2 0.5,-0.5c0,-0.3 -0.2,-0.5 -0.4,-0.5zm0,-2.7l-5.6,0c-0.3,0 -0.5,0.2 -0.5,0.5c0,0.2 0.2,0.5 0.5,0.5l5.5,0c0.3,0 0.5,-0.2 0.5,-0.5c0,-0.3 -0.2,-0.5 -0.4,-0.5z"/></svg>