<svg width="28" height="18" viewBox="0 0 28 18" xmlns="http://www.w3.org/2000/svg"><path stroke="null" d="m26.77997,0.07695l-25.52315,0l-0.22135,0l-0.53719,0l-0.37003,0l0,17.78074l27.78201,0l0,-17.78074l-0.96096,0l-0.16933,0zm-1.11126,1.11132l-10.73302,10.73296c-0.48941,0.48941 -1.34355,0.48941 -1.83296,0l-10.73464,-10.73296l23.30062,0zm-24.42924,0.4427l7.21572,7.21465l-7.21572,7.21577l0,-14.43043zm0.88662,15.11523l7.11537,-7.11431l3.07555,3.07505c0.45419,0.45475 1.05919,0.70546 1.7022,0.70546c0.64301,0 1.248,-0.25071 1.7022,-0.70546l3.07555,-3.07555l7.11481,7.11481l-23.78568,0zm24.67292,-0.68425l-7.21577,-7.21627l7.21572,-7.21627l0,14.43255l0.00006,0z"/></svg>