<svg width="30" height="30" viewBox="0 0 30 30" xmlns="http://www.w3.org/2000/svg"><path d="m169,-1394.1c0,-2.8 0,-5.7 0,-8.5c12.3,0 24.7,0 37,0c0,-0.2 0,-0.3 0,-0.5c-2.7,-1.7 -12,-10.6 -13,-13.5c2.2,-1.5 3.3,-4.1 6,-5c5.3,5.5 10.7,11 16,16.5c2.2,2.2 5.8,4 6.5,7.5c-5.5,5.3 -11,10.7 -16.5,16c-2.1,2.1 -4,5.4 -7,6.5c-1.5,-2.2 -4.1,-3.3 -5,-6c4.3,-4.2 8.7,-8.3 13,-12.5c0,-0.2 0,-0.3 0,-0.5c-12.3,0 -24.6,0 -37,0z" fill-rule="evenodd" clip-rule="evenodd" fill="none"/><path d="m15,0c-8.3,0 -15,6.7 -15,15s6.7,15 15,15c8.3,0 15,-6.7 15,-15s-6.7,-15 -15,-15zm-3,21l-2.5,0l0,-9l2.5,0l0,9zm-1,-10c-0.8,0 -1.5,-0.7 -1.5,-1.5c0,-0.8 0.7,-1.5 1.5,-1.5c0.8,0 1.5,0.7 1.5,1.5c0,0.9 -0.6,1.5 -1.5,1.5zm10.5,10l-2.5,0l0,-6c0,0 -0.2,-1 -1.5,-1c-1.3,0 -1.5,1 -1.5,1l0,6l-2.5,0l0,-9l2.5,0l0,1c0,0 0.6,-1.5 2.5,-1.5c2.2,0 3,1.6 3,3c0,1.7 0,6.5 0,6.5z" fill-rule="evenodd" clip-rule="evenodd"/></svg>