<svg width="16.5" height="14.5" viewBox="0 0 16.5 14.5" xmlns="http://www.w3.org/2000/svg"><path d="m7.9,4.7l0,2.9l0.2,2.3l0.4,0l0.2,-2.3l0,-2.9l-0.8,0zm0,7.2l0.8,0l0,-1l-0.8,0l0,1z"/><path d="m8.3,1c0.4,0 0.8,0.3 1,0.8c0.5,1 3.5,5.9 5.1,8.6c0.5,0.8 0.8,1.4 0.9,1.5c0.2,0.3 0.2,0.8 -0.1,1.2c-0.2,0.4 -0.6,0.4 -0.7,0.4l-13,0c-0.1,-0.1 -0.5,-0.3 -0.7,-0.6c-0.1,-0.3 -0.1,-0.8 0.2,-1.3c0,-0.1 4.7,-7.8 5.9,-9.7c0.6,-0.6 1,-0.9 1.4,-0.9m0,-1c-0.7,0 -1.4,0.4 -2,1.4c-1.2,1.9 -5.9,9.7 -5.9,9.7c-1.4,2.5 0.9,3.4 1.2,3.4c0.3,0 10.5,0 13.1,0c1.6,0 2.2,-2 1.6,-3.1c-0.4,-0.7 -5.3,-8.8 -6,-10.1c-0.5,-0.8 -1.2,-1.3 -2,-1.3l0,0z"/></svg>