<svg width="30" height="30" viewBox="0 0 30 30" xmlns="http://www.w3.org/2000/svg"><path fill-rule="evenodd" clip-rule="evenodd" fill="none" d="m116.5,-1391.9c0,-2.8 0,-5.7 0,-8.5c12.3,0 24.7,0 37,0c0,-0.2 0,-0.3 0,-0.5c-2.7,-1.7 -12,-10.6 -13,-13.5c2.2,-1.5 3.3,-4.1 6,-5c5.3,5.5 10.7,11 16,16.5c2.2,2.2 5.8,4 6.5,7.5c-5.5,5.3 -11,10.7 -16.5,16c-2.1,2.1 -4,5.4 -7,6.5c-1.5,-2.2 -4.1,-3.3 -5,-6c4.3,-4.2 8.7,-8.3 13,-12.5c0,-0.2 0,-0.3 0,-0.5c-12.3,0 -24.6,0 -37,0z"/><path fill-rule="evenodd" clip-rule="evenodd" d="m15,0.1c-8.3,0 -15,6.7 -15,15s6.7,15 15,15c8.3,0 15,-6.7 15,-15s-6.7,-15 -15,-15zm6.8,12.6c0,0.1 0,0.3 0,0.4c0,4.2 -3.3,9 -9.5,9c-1.9,0 -3.6,-0.5 -5.1,-1.4c0.3,0 0.5,0 0.8,0c1.6,0 3,-0.5 4.1,-1.4c-1.5,0 -2.7,-0.9 -3.1,-2.2c0.2,0 0.4,0.1 0.6,0.1c0.3,0 0.6,0 0.9,-0.1c-1.5,-0.2 -2.6,-1.5 -2.6,-3.1c0,0 0,0 0,0c0.4,0.2 1,0.4 1.5,0.4c-0.9,-0.6 -1.5,-1.5 -1.5,-2.6c0,-0.6 0.2,-1.1 0.5,-1.6c1.6,1.9 4.1,3.2 6.9,3.3c-0.1,-0.2 -0.1,-0.5 -0.1,-0.7c0,-1.8 1.5,-3.2 3.3,-3.2c1,0 1.8,0.4 2.4,1c0.8,-0.1 1.5,-0.4 2.1,-0.8c-0.2,0.7 -0.8,1.4 -1.5,1.8c0.7,-0.1 1.3,-0.2 1.9,-0.5c-0.4,0.6 -1,1.2 -1.6,1.6z"/></svg>