<svg width="30" height="30" viewBox="0 0 30 30" xmlns="http://www.w3.org/2000/svg"><path fill-rule="evenodd" clip-rule="evenodd" fill="none" d="m64.3,-1392c0,-2.8 0,-5.7 0,-8.5c12.3,0 24.7,0 37,0c0,-0.2 0,-0.3 0,-0.5c-2.7,-1.7 -12,-10.6 -13,-13.5c2.2,-1.5 3.3,-4.1 6,-5c5.3,5.5 10.7,11 16,16.5c2.2,2.2 5.8,4 6.5,7.5c-5.5,5.3 -11,10.7 -16.5,16c-2.1,2.1 -4,5.4 -7,6.5c-1.5,-2.2 -4.1,-3.3 -5,-6c4.3,-4.2 8.7,-8.3 13,-12.5c0,-0.2 0,-0.3 0,-0.5c-12.4,0 -24.7,0 -37,0z"/><path fill-rule="evenodd" clip-rule="evenodd" d="m15,0c-8.3,0 -15,6.7 -15,15s6.7,15 15,15s15,-6.7 15,-15s-6.7,-15 -15,-15zm-2.8,20.5c-0.9,0 -1.7,-0.8 -1.7,-1.7c0,-0.9 0.8,-1.7 1.7,-1.7c0.9,0 1.7,0.8 1.7,1.7c0.1,1 -0.7,1.7 -1.7,1.7zm4.8,0c-0.7,0 -1.2,-0.5 -1.2,-1.2c0,-2.3 -1.8,-4.1 -4.1,-4.1c-0.7,0 -1.2,-0.5 -1.2,-1.2c0,-0.7 0.5,-1.2 1.2,-1.2c3.6,0 6.5,2.9 6.5,6.5c0,0.7 -0.5,1.2 -1.2,1.2zm4.3,0c-0.7,0 -1.2,-0.6 -1.2,-1.2c0,-4.6 -3.7,-8.3 -8.3,-8.3c-0.7,0 -1.2,-0.6 -1.2,-1.2s0.6,-1.2 1.2,-1.2c5.9,0 10.8,4.8 10.8,10.8c-0.1,0.6 -0.6,1.1 -1.3,1.1z"/></svg>