<svg width="21.5" height="18" viewBox="0 0 21.5 18" xmlns="http://www.w3.org/2000/svg"><path d="m21,0l-20.6,0c-0.2,0 -0.4,0.2 -0.4,0.4l0,17.1c0,0.3 0.2,0.5 0.4,0.5l20.6,0c0.2,0 0.4,-0.2 0.4,-0.4l0,-17.2c0.1,-0.2 -0.1,-0.4 -0.4,-0.4zm-0.4,17.1l-19.7,0l0,-16.2l19.7,0l0,16.2zm-17.3,-6.1l6.4,0c0.3,0 0.6,-0.3 0.6,-0.6l0,-0.9c0,-0.3 -0.2,-0.5 -0.4,-0.6c-1.7,-0.6 -2.1,-0.9 -2.2,-1l0,-0.1c0.2,-0.2 0.4,-0.5 0.5,-0.8c0.1,-0.1 0.2,-0.3 0.3,-0.5c0,-0.2 0,-0.4 -0.1,-0.6l0,-0.7c0,-1.1 -0.7,-1.7 -1.8,-1.7c-1.1,0 -1.8,0.7 -1.8,1.7l0,0.6c-0.3,0.2 -0.3,0.4 -0.3,0.6c0,0.2 0.1,0.4 0.3,0.5c0.1,0.3 0.3,0.6 0.5,0.9l0,0.1c-0.1,0.1 -0.6,0.4 -2.2,1c-0.2,0.1 -0.4,0.3 -0.4,0.6l0,0.8c0,0.4 0.3,0.7 0.6,0.7zm0.2,-1.4c2.2,-0.9 2.4,-1.2 2.5,-1.5c0,0 0,-0.1 0,-0.1l0,-0.3c0,-0.1 0,-0.2 -0.1,-0.3c-0.1,-0.2 -0.3,-0.4 -0.4,-0.8c0,-0.1 -0.1,-0.2 -0.1,-0.2c0,0 -0.1,-0.1 -0.1,-0.1c0,0 0,-0.1 0,-0.1c0.1,-0.1 0.1,-0.2 0.1,-0.2l0,-0.8c0,-0.6 0.4,-0.9 1.1,-0.9c0.7,0 1.1,0.3 1.1,0.9l0,0.8c0,0.1 0,0.2 0.1,0.2c0,0.1 0,0.1 0,0.1c0,0 0,0.1 -0.1,0.1c0,0.1 -0.1,0.2 -0.1,0.2c-0.1,0.4 -0.3,0.6 -0.4,0.8c-0.1,0.1 -0.1,0.2 -0.1,0.3l0,0.3c0,0 0,0.1 0,0.1c0.1,0.3 0.4,0.6 2.6,1.5l0,0.6l-6.1,0l0,-0.6zm9.5,-1.3l5.4,0c0.2,0 0.4,-0.2 0.4,-0.4c0,-0.2 -0.2,-0.4 -0.4,-0.4l-5.4,0c-0.2,0 -0.4,0.2 -0.4,0.4c-0.1,0.2 0.1,0.4 0.4,0.4zm0,-2.6l5.4,0c0.2,0 0.4,-0.2 0.4,-0.4c0,-0.2 -0.2,-0.4 -0.4,-0.4l-5.4,0c-0.2,0 -0.4,0.2 -0.4,0.4c-0.1,0.2 0.1,0.4 0.4,0.4zm0,5.3l5.4,0c0.2,0 0.4,-0.2 0.4,-0.4c0,-0.2 -0.2,-0.4 -0.4,-0.4l-5.4,0c-0.2,0 -0.4,0.2 -0.4,0.4c-0.1,0.2 0.1,0.4 0.4,0.4zm-1.4,2.6l6.7,0c0.2,0 0.4,-0.2 0.4,-0.4c0,-0.2 -0.2,-0.4 -0.4,-0.4l-6.7,0c-0.2,0 -0.4,0.2 -0.4,0.4c0,0.2 0.2,0.4 0.4,0.4zm-8.5,0l6.7,0c0.2,0 0.4,-0.2 0.4,-0.4c0,-0.2 -0.2,-0.4 -0.4,-0.4l-6.7,0c-0.2,0 -0.4,0.2 -0.4,0.4c0,0.2 0.2,0.4 0.4,0.4z"/></svg>