<svg width="18" height="21" viewBox="0 0 18 21" xmlns="http://www.w3.org/2000/svg"><path fill-rule="evenodd" clip-rule="evenodd" d="m16,8.9l0,-1.9c0,-3.9 -3.1,-7 -7,-7c-3.9,0 -7,3.1 -7,7l0,1.9c-1.1,0.1 -2,0.9 -2,1.9l0,3.3c0,1 1,1.9 2.1,1.9l1.3,0c0.3,0 0.5,-0.2 0.5,-0.5l0,-6c0,-0.3 -0.2,-0.5 -0.5,-0.5l-0.4,0l0,-2c0,-3.3 2.7,-6 6,-6c3.3,0 6,2.7 6,6l0,1.9l-0.5,0c-0.3,0 -0.5,0.2 -0.5,0.5l0,6c0,0.3 0.2,0.5 0.5,0.5l1,0.1c0.1,0 0.4,0 0.5,0c-0.3,2.3 -1.8,3.1 -4.4,3.3c0,-0.6 -0.8,-0.8 -1.1,-0.8l-1,0c-0.5,0 -1,0.5 -1,1.5c0,0.6 0.7,1 1.1,1l0.9,0c0.5,0 0.9,-0.3 1.1,-0.7c3.1,-0.2 5.1,-1.5 5.4,-4.8c0.5,-0.3 1,-0.8 1,-1.4l0,-3.3c0,-1 -0.9,-1.8 -2,-1.9zm-15,5.2l0,-3.1c0,-0.3 0.2,-0.7 0.5,-0.8l0,4.7c-0.3,-0.2 -0.5,-0.5 -0.5,-0.8zm2,-4.1l0,5l-0.5,0l0,-5l0.5,0zm7.5,10l-1,0c-0.2,0 -0.2,-0.5 0,-0.5l1,0c0.2,0 0.2,0.5 0,0.5zm4.5,-5l0,-5l0.5,0l0,5l-0.5,0zm2,-1c0,0.3 -0.2,0.7 -0.5,0.8l0,-4.7c0.3,0.2 0.5,0.5 0.5,0.8l0,3.1z"/></svg>