<svg width="26" height="23.5" viewBox="0 0 26 23.5" xmlns="http://www.w3.org/2000/svg"><path stroke="null" d="m25.35483,9.56772l-3.88854,0l0,-3.8875c0,-0.29661 -0.2407,-0.53783 -0.5368,-0.53783l-1.10724,0c-0.29816,0 -0.53887,0.24122 -0.53887,0.53783l0,3.8875l-3.88854,0c-0.29609,0 -0.53783,0.24174 -0.53783,0.53887l0,1.10724c0,0.29713 0.24174,0.53783 0.53783,0.53783l3.88854,0l0,3.88957c0,0.29713 0.2407,0.53783 0.53887,0.53783l1.10724,0c0.29609,0 0.5368,-0.2407 0.5368,-0.53783l0,-3.89009l3.88854,0c0.29609,0 0.53783,-0.2407 0.53783,-0.53783l0,-1.10724c0,-0.29713 -0.24174,-0.53835 -0.53783,-0.53835z"/><path stroke="null" d="m12.28744,12.97692c-0.81788,-0.57924 -1.56121,-1.4287 -1.57415,-1.68959c0,-0.4752 0.04245,-0.70244 1.10827,-1.53274c1.37797,-1.07877 2.13683,-2.49711 2.13683,-3.99569c0,-1.35881 -0.41515,-2.56596 -1.12173,-3.41386l0.54818,0c0.11336,0 0.22466,-0.0352 0.31524,-0.10146l1.52964,-1.10827c0.18998,-0.13614 0.26969,-0.37891 0.19722,-0.60098c-0.07299,-0.22155 -0.27797,-0.3727 -0.51143,-0.3727l-6.84117,0c-0.74851,0 -1.50893,0.132 -2.25537,0.38875c-2.49297,0.85981 -4.23639,2.98421 -4.23639,5.16505c0,3.08981 2.39358,5.43163 5.59314,5.50514c-0.06263,0.24485 -0.09421,0.48607 -0.09421,0.72263c0,0.47623 0.12061,0.9271 0.36908,1.36296c-0.02899,0 -0.05694,0 -0.088,0c-3.04995,0 -5.80278,1.49651 -6.8479,3.72341c-0.27228,0.57924 -0.41101,1.1647 -0.41101,1.74291c0,0.56216 0.14442,1.1031 0.42757,1.61142c0.65689,1.17505 2.06747,2.08662 3.97395,2.56803c0.98404,0.24847 2.04159,0.37529 3.13951,0.37529c0.98663,0 1.92719,-0.12734 2.79683,-0.37891c2.71142,-0.78734 4.46467,-2.78337 4.46467,-5.0874c-0.00052,-2.21085 -0.71124,-3.53447 -2.61876,-4.88397zm-8.63999,5.061c0,-1.60832 2.04314,-3.0189 4.37202,-3.0189l0.06263,0c0.50677,0.00621 1.00112,0.08075 1.467,0.22362c0.15995,0.11026 0.31421,0.21534 0.46226,0.31628c1.07877,0.73505 1.79156,1.22009 1.98982,1.99862c0.04659,0.19619 0.06988,0.39237 0.06988,0.58235c0,2.00276 -1.4934,3.01786 -4.44034,3.01786c-2.23363,0 -3.98327,-1.36968 -3.98327,-3.11984zm2.11923,-15.19646c0.3639,-0.41567 0.84065,-0.63515 1.3759,-0.63515l0.06056,0.00104c1.51204,0.04452 2.95885,1.72945 3.22492,3.75602c0.1496,1.13467 -0.10301,2.20154 -0.67345,2.8517c-0.36494,0.4167 -0.83496,0.63618 -1.39194,0.63618c0,0 0,0 -0.00104,0l-0.02433,0c-1.48098,-0.04555 -2.95885,-1.79467 -3.22337,-3.81866c-0.14856,-1.13157 0.08955,-2.14874 0.65275,-2.79113z"/></svg>