<?xml version="1.0" encoding="utf-8"?>
<!-- Generator: Adobe Illustrator 17.1.0, SVG Export Plug-In . SVG Version: 6.00 Build 0)  -->
<!DOCTYPE svg PUBLIC "-//W3C//DTD SVG 1.1//EN" "http://www.w3.org/Graphics/SVG/1.1/DTD/svg11.dtd">
<svg version="1.1" id="Слой_1" xmlns="http://www.w3.org/2000/svg" xmlns:xlink="http://www.w3.org/1999/xlink" x="0px" y="0px"
	 viewBox="634.1 68.5 70.7 102" enable-background="new 634.1 68.5 70.7 102" xml:space="preserve">
<path display="none" fill="none" stroke="#000000" stroke-miterlimit="10" d="M586.3-16.5h166.2c6,0,10.7,4.7,10.7,10.7v245.1
	c0,6-4.7,10.7-10.7,10.7H586.3c-6,0-10.7-4.7-10.7-10.7V-5.8C575.6-11.8,580.3-16.5,586.3-16.5z"/>
<rect x="639" y="75.3" fill="none" stroke="#AC272A" stroke-width="1.5" stroke-miterlimit="10" width="60.9" height="87.8"/>
<path fill="#FFFFFF" stroke="#AC262A" stroke-width="1.5" stroke-miterlimit="10" d="M637.6,98.6h63.7c1.4,0,2.5,1.2,2.5,2.9
	s-1.1,2.9-2.5,2.9h-63.7c-1.4,0-2.5-1.2-2.5-2.9C635.2,99.8,636.2,98.6,637.6,98.6z"/>
<path fill="#FFFFFF" stroke="#AC262A" stroke-width="1.5" stroke-miterlimit="10" d="M637.6,130.4h63.7c1.4,0,2.5,1.2,2.5,2.9
	c0,1.7-1.1,2.9-2.5,2.9h-63.7c-1.4,0-2.5-1.2-2.5-2.9C635.2,131.7,636.2,130.4,637.6,130.4z"/>
<path fill="none" stroke="#AC262A" stroke-width="1.5" stroke-miterlimit="10" d="M637.6,69.5h63.7c1.4,0,2.5,1.2,2.5,2.9
	c-0.1,1.7-1.1,2.9-2.5,2.9h-63.7c-1.4,0-2.5-1.2-2.5-2.9C635.2,70.8,636.2,69.5,637.6,69.5z"/>
<path fill="none" stroke="#AC262A" stroke-width="1.5" stroke-miterlimit="10" d="M637.6,163.1h63.7c1.4,0,2.5,1.4,2.5,3.2
	c-0.1,1.8-1.1,3.2-2.5,3.2h-63.7c-1.4,0-2.5-1.4-2.5-3.2C635.2,164.5,636.2,163.1,637.6,163.1z"/>
<path fill="none" stroke="#AC262A" stroke-width="1.5" stroke-miterlimit="10" d="M669.3,110.3c0,0,4.7,7.2,4.7,10s-2.1,5-4.7,5
	c-2.6,0-4.7-2.2-4.7-5S669.3,110.3,669.3,110.3z"/>
</svg>
