<?xml version="1.0" encoding="UTF-8"?><!DOCTYPE svg PUBLIC "-//W3C//DTD SVG 1.1//EN" "http://www.w3.org/Graphics/SVG/1.1/DTD/svg11.dtd"><svg xmlns="http://www.w3.org/2000/svg"><symbol id="icon-skype" viewBox="0 0 15 15"><path d="M14.145 8.939c.103-.497.155-.98.155-1.452 0-.922-.18-1.804-.537-2.646a6.81 6.81 0 0 0-1.452-2.178 6.812 6.812 0 0 0-2.177-1.451A6.697 6.697 0 0 0 7.487.675c-.47 0-.954.051-1.451.155A3.62 3.62 0 0 0 3.77.056a3.58 3.58 0 0 0-2.627 1.088A3.58 3.58 0 0 0 .056 3.771c0 .839.258 1.594.774 2.265a7.13 7.13 0 0 0-.155 1.451c0 .923.179 1.805.537 2.647a6.811 6.811 0 0 0 1.451 2.177 6.814 6.814 0 0 0 2.178 1.452 6.694 6.694 0 0 0 2.646.537c.471 0 .955-.052 1.452-.155.67.516 1.426.774 2.264.774a3.58 3.58 0 0 0 2.627-1.089 3.58 3.58 0 0 0 1.089-2.627c0-.838-.258-1.593-.774-2.264zm-3.058 1.437a2.506 2.506 0 0 1-.856.905 4.411 4.411 0 0 1-1.186.517 5.07 5.07 0 0 1-1.355.18c-1.09 0-2.028-.212-2.815-.635-.788-.422-1.181-.93-1.181-1.524 0-.29.082-.532.247-.725.164-.194.408-.29.73-.29.187 0 .362.051.523.154.161.103.31.228.445.373.136.145.282.29.44.435.158.146.368.27.63.373.26.103.556.155.885.155.419 0 .758-.082 1.016-.247.258-.164.387-.373.387-.624a.64.64 0 0 0-.31-.58c-.141-.091-.503-.207-1.083-.35L6.19 8.146a5.986 5.986 0 0 1-.997-.314 3.283 3.283 0 0 1-.774-.47 1.833 1.833 0 0 1-.542-.73 2.66 2.66 0 0 1-.184-1.03c0-.471.108-.886.324-1.244.216-.358.503-.639.861-.842a4.45 4.45 0 0 1 1.157-.455c.413-.1.838-.15 1.277-.15.62 0 1.206.075 1.761.223.555.148 1.013.366 1.374.653.361.287.542.608.542.963 0 .29-.092.539-.276.745-.183.206-.427.31-.73.31a.954.954 0 0 1-.465-.117 1.86 1.86 0 0 1-.387-.28 7.363 7.363 0 0 0-.368-.324 1.718 1.718 0 0 0-.522-.276 2.232 2.232 0 0 0-.745-.116c-.93 0-1.394.248-1.394.745 0 .11.025.206.073.29a.814.814 0 0 0 .16.203.97.97 0 0 0 .29.155c.135.052.248.09.339.112l.425.101 1.007.232c.316.071.598.146.846.223.249.077.515.187.799.329.284.142.52.3.706.474a2.132 2.132 0 0 1 .658 1.548c0 .471-.106.895-.32 1.273z"/></symbol></svg>